<svg xmlns="http://www.w3.org/2000/svg" width="1200" height="630" viewBox="0 0 1200 630" role="img" aria-label="Winner Winner Chicken Dinner Blackjack Trainer">
  <defs>
    <linearGradient id="bg" x1="0" y1="0" x2="1" y2="1">
      <stop offset="0%" stop-color="#0b1020"/>
      <stop offset="55%" stop-color="#13284a"/>
      <stop offset="100%" stop-color="#1f3f6f"/>
    </linearGradient>
    <linearGradient id="felt" x1="0" y1="0" x2="1" y2="0">
      <stop offset="0%" stop-color="#143556"/>
      <stop offset="100%" stop-color="#1f4d7e"/>
    </linearGradient>
    <filter id="softShadow" x="-20%" y="-20%" width="140%" height="140%">
      <feDropShadow dx="0" dy="12" stdDeviation="14" flood-color="#020611" flood-opacity="0.45"/>
    </filter>
  </defs>

  <rect width="1200" height="630" fill="url(#bg)"/>

  <circle cx="1020" cy="-70" r="320" fill="#72a7ff" opacity="0.15"/>
  <circle cx="120" cy="660" r="290" fill="#9fd0ff" opacity="0.12"/>

  <rect x="48" y="48" width="1104" height="534" rx="32" fill="url(#felt)" opacity="0.35"/>

  <g filter="url(#softShadow)">
    <rect x="120" y="126" width="240" height="340" rx="18" fill="#f7fbff"/>
    <rect x="840" y="162" width="220" height="312" rx="16" fill="#f7fbff"/>
    <rect x="914" y="218" width="220" height="312" rx="16" fill="#f7fbff" transform="rotate(8 1024 374)" opacity="0.95"/>
  </g>

  <text x="165" y="206" font-family="Segoe UI, Inter, Arial, sans-serif" font-size="52" font-weight="700" fill="#0f2b4d">A</text>
  <text x="163" y="252" font-family="Segoe UI, Inter, Arial, sans-serif" font-size="52" font-weight="700" fill="#0f2b4d">♠</text>

  <text x="440" y="230" font-family="Segoe UI, Inter, Arial, sans-serif" font-size="72" font-weight="800" fill="#ffffff">Winner Winner</text>
  <text x="440" y="302" font-family="Segoe UI, Inter, Arial, sans-serif" font-size="72" font-weight="800" fill="#ffffff">Chicken Dinner</text>
  <text x="442" y="360" font-family="Segoe UI, Inter, Arial, sans-serif" font-size="34" font-weight="600" fill="#d7e8ff">Blackjack Trainer • Count Smarter • Bet Cleaner</text>

  <g>
    <rect x="438" y="404" width="348" height="62" rx="31" fill="#8fc3ff" opacity="0.9"/>
    <text x="612" y="446" text-anchor="middle" font-family="Segoe UI, Inter, Arial, sans-serif" font-size="30" font-weight="800" fill="#0b1b34">winnerwinnerchickendinner.nealfrazier.tech</text>
  </g>

  <g transform="translate(410 502)">
    <circle cx="0" cy="0" r="26" fill="#ffd973"/>
    <circle cx="58" cy="0" r="26" fill="#ffc264"/>
    <circle cx="116" cy="0" r="26" fill="#ffa96a"/>
    <circle cx="174" cy="0" r="26" fill="#ff8aa2"/>
    <circle cx="232" cy="0" r="26" fill="#90d0ff"/>
  </g>
</svg>
